<mxfile host="app.diagrams.net" modified="2023-02-18T11:41:52.111Z" agent="5.0 (Windows NT 10.0; Win64; x64) AppleWebKit/537.36 (KHTML, like Gecko) Chrome/110.0.0.0 Safari/537.36 Edg/110.0.1587.49" etag="Jbs_xSPpJ5BvrH6jNwXt" version="20.8.20" type="github">
  <diagram id="oGFlpdTqN46abrTQSJ-Q" name="第 1 页">
    <mxGraphModel dx="1434" dy="796" grid="1" gridSize="10" guides="1" tooltips="1" connect="1" arrows="1" fold="1" page="0" pageScale="1" pageWidth="827" pageHeight="1169" math="0" shadow="0">
      <root>
        <mxCell id="0" />
        <mxCell id="1" parent="0" />
        <mxCell id="kUgraecNUWA_pfVt_VVu-1" value="&lt;p class=&quot;MsoNormal&quot;&gt;&lt;span style=&quot;mso-spacerun:&#39;yes&#39;;font-family:&#39;Times New Roman&#39;;font-size:10.5000pt;&lt;br/&gt;mso-font-kerning:1.0000pt;&quot;&gt;↕(w0)↑(r0,w1)↑(r1,w0)↕(r0)↓(r0,w1)↓(r1,w0)↕(r0)&lt;/span&gt;&lt;/p&gt;" style="rounded=1;whiteSpace=wrap;html=1;" parent="1" vertex="1">
          <mxGeometry x="270.16" y="160" width="280" height="40" as="geometry" />
        </mxCell>
        <mxCell id="kUgraecNUWA_pfVt_VVu-3" value="&lt;p class=&quot;MsoNormal&quot;&gt;&lt;span style=&quot;mso-spacerun:&#39;yes&#39;;font-family:&#39;Times New Roman&#39;;font-size:10.5000pt;&lt;br/&gt;mso-font-kerning:1.0000pt;&quot;&gt;↕(w0)&lt;/span&gt;&lt;/p&gt;" style="rounded=1;whiteSpace=wrap;html=1;" parent="1" vertex="1">
          <mxGeometry x="110" y="240" width="70" height="40" as="geometry" />
        </mxCell>
        <mxCell id="kUgraecNUWA_pfVt_VVu-4" value="&lt;p class=&quot;MsoNormal&quot;&gt;&lt;span style=&quot;mso-spacerun:&#39;yes&#39;;font-family:&#39;Times New Roman&#39;;font-size:10.5000pt;&#xa;mso-font-kerning:1.0000pt;&quot;&gt;&lt;font face=&quot;Times New Roman&quot;&gt;↑(r0,w1)&lt;/font&gt;&lt;/span&gt;&lt;/p&gt;" style="rounded=1;whiteSpace=wrap;html=1;" parent="1" vertex="1">
          <mxGeometry x="200.16" y="240" width="70" height="40" as="geometry" />
        </mxCell>
        <mxCell id="kUgraecNUWA_pfVt_VVu-5" value="&lt;p class=&quot;MsoNormal&quot;&gt;&lt;span style=&quot;mso-spacerun:&#39;yes&#39;;font-family:&#39;Times New Roman&#39;;font-size:10.5000pt;&lt;br/&gt;mso-font-kerning:1.0000pt;&quot;&gt;↑(r1,w0)&lt;/span&gt;&lt;/p&gt;" style="rounded=1;whiteSpace=wrap;html=1;" parent="1" vertex="1">
          <mxGeometry x="290" y="240" width="70" height="40" as="geometry" />
        </mxCell>
        <mxCell id="kUgraecNUWA_pfVt_VVu-6" value="&lt;p class=&quot;MsoNormal&quot;&gt;&lt;span style=&quot;mso-spacerun:&#39;yes&#39;;font-family:&#39;Times New Roman&#39;;font-size:10.5000pt;&lt;br/&gt;mso-font-kerning:1.0000pt;&quot;&gt;↕(r0)&lt;/span&gt;&lt;/p&gt;" style="rounded=1;whiteSpace=wrap;html=1;" parent="1" vertex="1">
          <mxGeometry x="379" y="240" width="70" height="40" as="geometry" />
        </mxCell>
        <mxCell id="kUgraecNUWA_pfVt_VVu-7" value="&lt;p class=&quot;MsoNormal&quot;&gt;&lt;span style=&quot;mso-spacerun:&#39;yes&#39;;font-family:&#39;Times New Roman&#39;;font-size:10.5000pt;&lt;br/&gt;mso-font-kerning:1.0000pt;&quot;&gt;↓(r0,w1)&lt;/span&gt;&lt;/p&gt;" style="rounded=1;whiteSpace=wrap;html=1;" parent="1" vertex="1">
          <mxGeometry x="470" y="240" width="70" height="40" as="geometry" />
        </mxCell>
        <mxCell id="kUgraecNUWA_pfVt_VVu-8" value="&lt;p class=&quot;MsoNormal&quot;&gt;&lt;span style=&quot;mso-spacerun:&#39;yes&#39;;font-family:&#39;Times New Roman&#39;;font-size:10.5000pt;&lt;br/&gt;mso-font-kerning:1.0000pt;&quot;&gt;↓(r1,w0)&lt;/span&gt;&lt;/p&gt;" style="rounded=1;whiteSpace=wrap;html=1;" parent="1" vertex="1">
          <mxGeometry x="560" y="240" width="70" height="40" as="geometry" />
        </mxCell>
        <mxCell id="kUgraecNUWA_pfVt_VVu-9" value="&lt;p class=&quot;MsoNormal&quot;&gt;&lt;span style=&quot;mso-spacerun:&#39;yes&#39;;font-family:&#39;Times New Roman&#39;;font-size:10.5000pt;&lt;br/&gt;mso-font-kerning:1.0000pt;&quot;&gt;↕(r0)&lt;/span&gt;&lt;/p&gt;" style="rounded=1;whiteSpace=wrap;html=1;" parent="1" vertex="1">
          <mxGeometry x="650" y="240" width="70" height="40" as="geometry" />
        </mxCell>
        <mxCell id="kUgraecNUWA_pfVt_VVu-14" value="March C" style="text;html=1;strokeColor=none;fillColor=none;align=center;verticalAlign=middle;whiteSpace=wrap;rounded=0;" parent="1" vertex="1">
          <mxGeometry x="20" y="165" width="60" height="30" as="geometry" />
        </mxCell>
        <mxCell id="kUgraecNUWA_pfVt_VVu-15" value="March元素" style="text;html=1;strokeColor=none;fillColor=none;align=center;verticalAlign=middle;whiteSpace=wrap;rounded=0;" parent="1" vertex="1">
          <mxGeometry x="20" y="240" width="60" height="30" as="geometry" />
        </mxCell>
        <mxCell id="pRD_6JttEL12qKxeUE_r-2" value="" style="endArrow=classic;html=1;rounded=0;exitX=0.5;exitY=1;exitDx=0;exitDy=0;entryX=0.5;entryY=0;entryDx=0;entryDy=0;" edge="1" parent="1" source="kUgraecNUWA_pfVt_VVu-1" target="kUgraecNUWA_pfVt_VVu-3">
          <mxGeometry width="50" height="50" relative="1" as="geometry">
            <mxPoint x="-9" y="453" as="sourcePoint" />
            <mxPoint x="41" y="403" as="targetPoint" />
          </mxGeometry>
        </mxCell>
        <mxCell id="pRD_6JttEL12qKxeUE_r-3" value="" style="endArrow=classic;html=1;rounded=0;entryX=0.5;entryY=0;entryDx=0;entryDy=0;" edge="1" parent="1" target="kUgraecNUWA_pfVt_VVu-4">
          <mxGeometry width="50" height="50" relative="1" as="geometry">
            <mxPoint x="405" y="199" as="sourcePoint" />
            <mxPoint x="123" y="427" as="targetPoint" />
          </mxGeometry>
        </mxCell>
        <mxCell id="pRD_6JttEL12qKxeUE_r-4" value="" style="endArrow=classic;html=1;rounded=0;entryX=0.5;entryY=0;entryDx=0;entryDy=0;" edge="1" parent="1" target="kUgraecNUWA_pfVt_VVu-5">
          <mxGeometry width="50" height="50" relative="1" as="geometry">
            <mxPoint x="407" y="200" as="sourcePoint" />
            <mxPoint x="358" y="425" as="targetPoint" />
          </mxGeometry>
        </mxCell>
        <mxCell id="pRD_6JttEL12qKxeUE_r-5" value="" style="endArrow=classic;html=1;rounded=0;" edge="1" parent="1" target="kUgraecNUWA_pfVt_VVu-6">
          <mxGeometry width="50" height="50" relative="1" as="geometry">
            <mxPoint x="405" y="200" as="sourcePoint" />
            <mxPoint x="92" y="451" as="targetPoint" />
          </mxGeometry>
        </mxCell>
        <mxCell id="pRD_6JttEL12qKxeUE_r-6" value="" style="endArrow=classic;html=1;rounded=0;entryX=0.5;entryY=0;entryDx=0;entryDy=0;" edge="1" parent="1" target="kUgraecNUWA_pfVt_VVu-7">
          <mxGeometry width="50" height="50" relative="1" as="geometry">
            <mxPoint x="405" y="202" as="sourcePoint" />
            <mxPoint x="238" y="421" as="targetPoint" />
          </mxGeometry>
        </mxCell>
        <mxCell id="pRD_6JttEL12qKxeUE_r-7" value="" style="endArrow=classic;html=1;rounded=0;entryX=0.5;entryY=0;entryDx=0;entryDy=0;" edge="1" parent="1" target="kUgraecNUWA_pfVt_VVu-8">
          <mxGeometry width="50" height="50" relative="1" as="geometry">
            <mxPoint x="404" y="202" as="sourcePoint" />
            <mxPoint x="267" y="438" as="targetPoint" />
          </mxGeometry>
        </mxCell>
        <mxCell id="pRD_6JttEL12qKxeUE_r-8" value="" style="endArrow=classic;html=1;rounded=0;entryX=0.5;entryY=0;entryDx=0;entryDy=0;" edge="1" parent="1" target="kUgraecNUWA_pfVt_VVu-9">
          <mxGeometry width="50" height="50" relative="1" as="geometry">
            <mxPoint x="405" y="200" as="sourcePoint" />
            <mxPoint x="146" y="477" as="targetPoint" />
          </mxGeometry>
        </mxCell>
        <mxCell id="pRD_6JttEL12qKxeUE_r-10" value="↕" style="rounded=1;whiteSpace=wrap;html=1;" vertex="1" parent="1">
          <mxGeometry x="107" y="311" width="28" height="23" as="geometry" />
        </mxCell>
        <mxCell id="pRD_6JttEL12qKxeUE_r-11" value="w0" style="rounded=1;whiteSpace=wrap;html=1;" vertex="1" parent="1">
          <mxGeometry x="140" y="307.5" width="50" height="30" as="geometry" />
        </mxCell>
        <mxCell id="pRD_6JttEL12qKxeUE_r-12" value="↑" style="rounded=1;whiteSpace=wrap;html=1;" vertex="1" parent="1">
          <mxGeometry x="193.66" y="311" width="28" height="23" as="geometry" />
        </mxCell>
        <mxCell id="pRD_6JttEL12qKxeUE_r-13" value="r0,w1" style="rounded=1;whiteSpace=wrap;html=1;" vertex="1" parent="1">
          <mxGeometry x="226.66" y="307.5" width="50" height="30" as="geometry" />
        </mxCell>
        <mxCell id="pRD_6JttEL12qKxeUE_r-14" value="↑" style="rounded=1;whiteSpace=wrap;html=1;" vertex="1" parent="1">
          <mxGeometry x="283.5" y="311" width="28" height="23" as="geometry" />
        </mxCell>
        <mxCell id="pRD_6JttEL12qKxeUE_r-15" value="r1,w0" style="rounded=1;whiteSpace=wrap;html=1;" vertex="1" parent="1">
          <mxGeometry x="316.5" y="307.5" width="50" height="30" as="geometry" />
        </mxCell>
        <mxCell id="pRD_6JttEL12qKxeUE_r-16" value="↕" style="rounded=1;whiteSpace=wrap;html=1;" vertex="1" parent="1">
          <mxGeometry x="372.5" y="311" width="28" height="23" as="geometry" />
        </mxCell>
        <mxCell id="pRD_6JttEL12qKxeUE_r-17" value="r0" style="rounded=1;whiteSpace=wrap;html=1;" vertex="1" parent="1">
          <mxGeometry x="405.5" y="307.5" width="50" height="30" as="geometry" />
        </mxCell>
        <mxCell id="pRD_6JttEL12qKxeUE_r-18" value="↓" style="rounded=1;whiteSpace=wrap;html=1;" vertex="1" parent="1">
          <mxGeometry x="470" y="311" width="28" height="23" as="geometry" />
        </mxCell>
        <mxCell id="pRD_6JttEL12qKxeUE_r-19" value="r0,w1" style="rounded=1;whiteSpace=wrap;html=1;" vertex="1" parent="1">
          <mxGeometry x="503" y="307.5" width="50" height="30" as="geometry" />
        </mxCell>
        <mxCell id="pRD_6JttEL12qKxeUE_r-20" value="↓" style="rounded=1;whiteSpace=wrap;html=1;" vertex="1" parent="1">
          <mxGeometry x="560" y="311" width="28" height="23" as="geometry" />
        </mxCell>
        <mxCell id="pRD_6JttEL12qKxeUE_r-21" value="r1,w0" style="rounded=1;whiteSpace=wrap;html=1;" vertex="1" parent="1">
          <mxGeometry x="593" y="307.5" width="50" height="30" as="geometry" />
        </mxCell>
        <mxCell id="pRD_6JttEL12qKxeUE_r-22" value="↕" style="rounded=1;whiteSpace=wrap;html=1;" vertex="1" parent="1">
          <mxGeometry x="650" y="311" width="28" height="23" as="geometry" />
        </mxCell>
        <mxCell id="pRD_6JttEL12qKxeUE_r-23" value="r0" style="rounded=1;whiteSpace=wrap;html=1;" vertex="1" parent="1">
          <mxGeometry x="683" y="307.5" width="50" height="30" as="geometry" />
        </mxCell>
        <mxCell id="pRD_6JttEL12qKxeUE_r-24" value="w" style="rounded=1;whiteSpace=wrap;html=1;" vertex="1" parent="1">
          <mxGeometry x="140" y="360" width="28" height="23" as="geometry" />
        </mxCell>
        <mxCell id="pRD_6JttEL12qKxeUE_r-25" value="0" style="rounded=1;whiteSpace=wrap;html=1;" vertex="1" parent="1">
          <mxGeometry x="172" y="380" width="28" height="26" as="geometry" />
        </mxCell>
        <mxCell id="pRD_6JttEL12qKxeUE_r-26" value="r" style="rounded=1;whiteSpace=wrap;html=1;" vertex="1" parent="1">
          <mxGeometry x="193.66" y="360" width="28" height="23" as="geometry" />
        </mxCell>
        <mxCell id="pRD_6JttEL12qKxeUE_r-27" value="0" style="rounded=1;whiteSpace=wrap;html=1;" vertex="1" parent="1">
          <mxGeometry x="225.66" y="383" width="28" height="23" as="geometry" />
        </mxCell>
        <mxCell id="pRD_6JttEL12qKxeUE_r-28" value="r" style="rounded=1;whiteSpace=wrap;html=1;" vertex="1" parent="1">
          <mxGeometry x="300" y="360" width="28" height="23" as="geometry" />
        </mxCell>
        <mxCell id="pRD_6JttEL12qKxeUE_r-29" value="1" style="rounded=1;whiteSpace=wrap;html=1;" vertex="1" parent="1">
          <mxGeometry x="332" y="383" width="28" height="23" as="geometry" />
        </mxCell>
        <mxCell id="pRD_6JttEL12qKxeUE_r-30" value="r" style="rounded=1;whiteSpace=wrap;html=1;" vertex="1" parent="1">
          <mxGeometry x="405.5" y="360" width="24.5" height="20" as="geometry" />
        </mxCell>
        <mxCell id="pRD_6JttEL12qKxeUE_r-31" value="0" style="rounded=1;whiteSpace=wrap;html=1;" vertex="1" parent="1">
          <mxGeometry x="437.5" y="383" width="28" height="23" as="geometry" />
        </mxCell>
        <mxCell id="pRD_6JttEL12qKxeUE_r-32" value="r" style="rounded=1;whiteSpace=wrap;html=1;" vertex="1" parent="1">
          <mxGeometry x="465.5" y="360" width="28" height="23" as="geometry" />
        </mxCell>
        <mxCell id="pRD_6JttEL12qKxeUE_r-33" value="0" style="rounded=1;whiteSpace=wrap;html=1;" vertex="1" parent="1">
          <mxGeometry x="497.5" y="380" width="32.5" height="26" as="geometry" />
        </mxCell>
        <mxCell id="pRD_6JttEL12qKxeUE_r-34" value="w" style="rounded=1;whiteSpace=wrap;html=1;" vertex="1" parent="1">
          <mxGeometry x="520" y="360" width="30" height="20" as="geometry" />
        </mxCell>
        <mxCell id="pRD_6JttEL12qKxeUE_r-35" value="1" style="rounded=1;whiteSpace=wrap;html=1;" vertex="1" parent="1">
          <mxGeometry x="552" y="383" width="28" height="23" as="geometry" />
        </mxCell>
        <mxCell id="pRD_6JttEL12qKxeUE_r-37" value="w" style="rounded=1;whiteSpace=wrap;html=1;" vertex="1" parent="1">
          <mxGeometry x="251.5" y="360" width="28" height="23" as="geometry" />
        </mxCell>
        <mxCell id="pRD_6JttEL12qKxeUE_r-38" value="1" style="rounded=1;whiteSpace=wrap;html=1;" vertex="1" parent="1">
          <mxGeometry x="283.5" y="383" width="28" height="23" as="geometry" />
        </mxCell>
        <mxCell id="pRD_6JttEL12qKxeUE_r-39" value="w" style="rounded=1;whiteSpace=wrap;html=1;" vertex="1" parent="1">
          <mxGeometry x="345.5" y="360" width="28" height="23" as="geometry" />
        </mxCell>
        <mxCell id="pRD_6JttEL12qKxeUE_r-40" value="0" style="rounded=1;whiteSpace=wrap;html=1;" vertex="1" parent="1">
          <mxGeometry x="377.5" y="383" width="28" height="23" as="geometry" />
        </mxCell>
        <mxCell id="pRD_6JttEL12qKxeUE_r-41" value="r" style="rounded=1;whiteSpace=wrap;html=1;" vertex="1" parent="1">
          <mxGeometry x="570" y="360" width="28" height="23" as="geometry" />
        </mxCell>
        <mxCell id="pRD_6JttEL12qKxeUE_r-42" value="1" style="rounded=1;whiteSpace=wrap;html=1;" vertex="1" parent="1">
          <mxGeometry x="602" y="383" width="28" height="23" as="geometry" />
        </mxCell>
        <mxCell id="pRD_6JttEL12qKxeUE_r-43" value="w" style="rounded=1;whiteSpace=wrap;html=1;" vertex="1" parent="1">
          <mxGeometry x="618" y="360" width="26.34" height="20" as="geometry" />
        </mxCell>
        <mxCell id="pRD_6JttEL12qKxeUE_r-44" value="0" style="rounded=1;whiteSpace=wrap;html=1;" vertex="1" parent="1">
          <mxGeometry x="650" y="383" width="28" height="23" as="geometry" />
        </mxCell>
        <mxCell id="pRD_6JttEL12qKxeUE_r-45" value="r" style="rounded=1;whiteSpace=wrap;html=1;" vertex="1" parent="1">
          <mxGeometry x="673" y="360" width="28" height="23" as="geometry" />
        </mxCell>
        <mxCell id="pRD_6JttEL12qKxeUE_r-46" value="0" style="rounded=1;whiteSpace=wrap;html=1;" vertex="1" parent="1">
          <mxGeometry x="705" y="383" width="28" height="23" as="geometry" />
        </mxCell>
      </root>
    </mxGraphModel>
  </diagram>
</mxfile>
